<?xml version="1.0" encoding="UTF-8"?>
<svg width="512pt" height="512pt" version="1.1" viewBox="0 0 512 512" xmlns="http://www.w3.org/2000/svg">
 <path d="m437.34 106.66v170.66c0 17.699-14.301 32-32 32h-10.66v-138.66c0-14.301-5.5391-27.738-15.582-37.762-10.02-10.02-23.461-15.582-37.762-15.582h-138.66v-10.66c0-17.699 14.301-32 32-32h170.66c17.699 0 32 14.301 32 32z"/>
 <path d="m363.94 148.06c-5.9805-5.9805-14.078-9.3789-22.621-9.3789l-234.66-0.019532c-8.5391 0-16.641 3.4219-22.621 9.3789-5.9805 5.9805-9.3789 14.078-9.3789 22.621v234.66c0 8.5391 3.4219 16.641 9.3789 22.621 5.9805 5.9805 14.078 9.3789 22.621 9.3789h234.66c8.3203 0 16.641-3.4219 22.621-9.3789 5.9805-5.9805 9.3789-14.301 9.3789-22.621v-234.66c0-8.5391-3.4219-16.641-9.3789-22.621zm-59.941 150.62h-69.34v69.34c0 5.9805-4.6992 10.66-10.66 10.66-5.9805 0-10.66-4.6992-10.66-10.66v-69.34h-69.34c-5.9805 0-10.66-4.6992-10.66-10.66 0-5.9805 4.6992-10.66 10.66-10.66h69.34v-69.34c0-5.9805 4.6992-10.66 10.66-10.66 5.9805 0 10.66 4.6992 10.66 10.66v69.34h69.34c5.9805 0 10.66 4.6992 10.66 10.66 0 5.9805-4.6992 10.66-10.66 10.66z"/>
</svg>
