<?xml version="1.0" encoding="UTF-8"?>
<svg width="512pt" height="512pt" version="1.1" viewBox="0 0 512 512" xmlns="http://www.w3.org/2000/svg">
 <path d="m200.43 420.8c-10.605 0.015625-20.781-4.1953-28.273-11.695l-0.52734-0.52734v-0.003906c-1.3242-0.75781-2.5391-1.7031-3.6016-2.7969l-107.87-107.81c-7.5-7.5-11.711-17.676-11.711-28.281s4.2109-20.777 11.711-28.281l27.039-27.039c7.5039-7.5039 17.68-11.719 28.289-11.719s20.785 4.2148 28.289 11.719l56.223 56.289 168.22-168.26c7.6211-7.2656 17.75-11.32 28.281-11.32s20.66 4.0547 28.281 11.32l27.039 27.023v0.003906c7.5039 7.5 11.719 17.676 11.719 28.285 0 10.613-4.2148 20.789-11.719 28.289l-223.02 223.17c-7.5312 7.5-17.742 11.688-28.367 11.633zm-10.801-38.672c0.76953 0.49609 1.6016 1.0391 1.9844 1.3438 0.50781 0.39453 0.99609 0.82422 1.4531 1.2812l1.7266 1.7422h0.003906c3.1211 3.1133 8.1719 3.1133 11.297 0l223.1-223.05c3.125-3.125 3.125-8.1875 0-11.312l-27.039-27.039c-3.125-3.125-8.1875-3.125-11.312 0l-179.5 179.5c-3.0586 2.8906-7.1055 4.5-11.312 4.5s-8.2539-1.6094-11.312-4.5l-67.582-67.602c-1.5-1.5039-3.5391-2.3516-5.6641-2.3516s-4.1641 0.84766-5.6641 2.3516l-27.023 27.008c-3.125 3.125-3.125 8.1875 0 11.312z"/>
</svg>
